<?xml version="1.0" encoding="UTF-8" standalone="no"?>
<!DOCTYPE svg PUBLIC "-//W3C//DTD SVG 1.1//EN" "http://www.w3.org/Graphics/SVG/1.1/DTD/svg11.dtd">
<svg width="100%" height="100%" viewBox="0 0 16 16" version="1.1" xmlns="http://www.w3.org/2000/svg" xmlns:xlink="http://www.w3.org/1999/xlink" xml:space="preserve" xmlns:serif="http://www.serif.com/" style="fill-rule:evenodd;clip-rule:evenodd;stroke-linejoin:round;stroke-miterlimit:2;">
    <g transform="matrix(1,0,0,1,-216,-134)">
        <g transform="matrix(0.25,0,0,0.25,216,134)">
            <rect id="filter-circle-check" x="0" y="0" width="64" height="64" style="fill:none;"/>
            <g id="filter-circle-check1" serif:id="filter-circle-check">
                <g transform="matrix(3.06254,0,0,3.06254,-937.661,-403.905)">
                    <path d="M309.784,144.283C309.664,144.294 309.533,144.3 309.39,144.3C308.93,144.3 308.506,144.218 308.117,144.053C307.728,143.889 307.389,143.656 307.099,143.355C306.808,143.054 306.581,142.695 306.417,142.279C306.253,141.863 306.17,141.4 306.17,140.891C306.17,140.382 306.255,139.917 306.425,139.495C306.595,139.073 306.825,138.715 307.115,138.419C307.405,138.123 307.747,137.899 308.142,137.745C308.536,137.592 308.963,137.515 309.423,137.515C309.839,137.515 310.253,137.595 310.663,137.754C311.074,137.912 311.405,138.145 311.657,138.452L310.672,139.52C310.54,139.311 310.365,139.161 310.146,139.068C309.927,138.975 309.697,138.928 309.456,138.928C309.215,138.928 308.988,138.977 308.774,139.076C308.561,139.175 308.377,139.311 308.224,139.487C308.071,139.662 307.953,139.87 307.871,140.111C307.789,140.352 307.747,140.615 307.747,140.899C307.747,141.184 307.789,141.45 307.871,141.696C307.953,141.943 308.071,142.151 308.224,142.32C308.377,142.49 308.555,142.624 308.758,142.723C308.96,142.821 309.188,142.871 309.439,142.871C309.724,142.871 309.976,142.81 310.195,142.69C310.37,142.591 310.518,142.465 310.639,142.312L309.784,144.283Z" style="fill-rule:nonzero;"/>
                </g>
                <g transform="matrix(4,0,0,4,-1224.68,-536)">
                    <path d="M313.746,143.283L313.453,142.511L311.528,142.511L311.164,143.505L309.868,143.505L311.943,138.474L313.113,138.474L314.53,141.949C314.192,142.354 313.931,142.798 313.746,143.283ZM312.509,139.82L311.881,141.543L313.126,141.543L312.509,139.82Z" style="fill-rule:nonzero;"/>
                </g>
                <g transform="matrix(4,0,0,4,-1224.68,-536)">
                    <path d="M322.17,145.016C322.136,146.149 321.741,147.094 320.985,147.852C320.229,148.611 319.287,148.998 318.157,149.016C317.028,148.998 316.09,148.611 315.343,147.852C314.596,147.094 314.205,146.149 314.17,145.016C314.205,143.883 314.596,142.937 315.343,142.179C316.09,141.421 317.028,141.033 318.157,141.016C319.287,141.033 320.229,141.421 320.985,142.179C321.741,142.937 322.136,143.883 322.17,145.016ZM321.266,143.082C321.258,143.071 321.249,143.061 321.239,143.052C320.885,142.697 320.309,142.697 319.955,143.052L318.698,144.307L318.182,145.504C318.182,145.504 317.782,144.477 317.782,144.477L317.324,144.019C316.97,143.665 316.394,143.665 316.04,144.019C315.685,144.374 315.685,144.949 316.04,145.304L317.513,146.777C317.688,146.952 317.917,147.04 318.146,147.042C318.153,147.042 318.16,147.042 318.166,147.042C318.395,147.039 318.623,146.951 318.797,146.777L321.238,144.336C321.582,143.992 321.592,143.438 321.266,143.082Z" style="fill-rule:nonzero;"/>
                </g>
            </g>
        </g>
    </g>
</svg>
