<?xml version="1.0" encoding="UTF-8" standalone="no"?>
<!DOCTYPE svg PUBLIC "-//W3C//DTD SVG 1.1//EN" "http://www.w3.org/Graphics/SVG/1.1/DTD/svg11.dtd">
<svg width="100%" height="100%" viewBox="0 0 16 16" version="1.1" xmlns="http://www.w3.org/2000/svg" xmlns:xlink="http://www.w3.org/1999/xlink" xml:space="preserve" xmlns:serif="http://www.serif.com/" style="fill-rule:evenodd;clip-rule:evenodd;stroke-linejoin:round;stroke-miterlimit:2;">
    <g transform="matrix(1,0,0,1,-242,-134)">
        <g transform="matrix(0.25,0,0,0.25,242,134)">
            <rect id="certificate" x="0" y="0" width="64" height="64" style="fill:none;"/>
            <g id="certificate1" serif:id="certificate">
                <g transform="matrix(4,0,0,4,-1329.92,-536)">
                    <path d="M333.48,134L347.48,134C348.032,134 348.48,134.448 348.48,135L348.48,145C348.48,145.552 348.032,146 347.48,146L342,146L342,145L347.48,145L347.48,135L333.48,135L333.48,145L334,145L334,146L333.48,146C332.928,146 332.48,145.552 332.48,145L332.48,135C332.48,134.448 332.928,134 333.48,134Z"/>
                </g>
                <g transform="matrix(4.32185,0,0,4.32185,-1439.2,-580.832)">
                    <circle cx="338.097" cy="141.352" r="3.239"/>
                </g>
                <g transform="matrix(4,0,0,4,-1329.92,-536)">
                    <path d="M340.472,145.264L341.472,150L337.967,148L334.48,150L335.48,145.258C336.195,145.737 337.055,146.017 337.98,146.017C338.901,146.017 339.758,145.74 340.472,145.264Z" style="fill-rule:nonzero;"/>
                </g>
                <g transform="matrix(4,0,0,4,-1329.92,-536)">
                    <path d="M346.48,137C346.48,136.735 346.374,136.48 346.187,136.293C345.999,136.105 345.745,136 345.48,136C344.37,136 342.589,136 341.48,136C341.214,136 340.96,136.105 340.773,136.293C340.585,136.48 340.48,136.735 340.48,137C340.48,137.265 340.585,137.52 340.773,137.707C340.96,137.895 341.214,138 341.48,138C342.589,138 344.37,138 345.48,138C345.745,138 345.999,137.895 346.187,137.707C346.374,137.52 346.48,137.265 346.48,137Z"/>
                </g>
                <g transform="matrix(4,0,0,4,-1329.92,-524)">
                    <path d="M346.48,137C346.48,136.735 346.374,136.48 346.187,136.293C345.999,136.105 345.745,136 345.48,136C344.37,136 344.589,136 343.48,136C343.214,136 342.96,136.105 342.773,136.293C342.585,136.48 342.48,136.735 342.48,137C342.48,137.265 342.585,137.52 342.773,137.707C342.96,137.895 343.214,138 343.48,138C344.589,138 344.37,138 345.48,138C345.745,138 345.999,137.895 346.187,137.707C346.374,137.52 346.48,137.265 346.48,137Z"/>
                </g>
            </g>
        </g>
    </g>
</svg>
