<?xml version="1.0" encoding="UTF-8" standalone="no"?>
<!DOCTYPE svg PUBLIC "-//W3C//DTD SVG 1.1//EN" "http://www.w3.org/Graphics/SVG/1.1/DTD/svg11.dtd">
<svg width="100%" height="100%" viewBox="0 0 16 16" version="1.1" xmlns="http://www.w3.org/2000/svg" xmlns:xlink="http://www.w3.org/1999/xlink" xml:space="preserve" xmlns:serif="http://www.serif.com/" style="fill-rule:evenodd;clip-rule:evenodd;stroke-linejoin:round;stroke-miterlimit:2;">
    <g transform="matrix(1,0,0,1,-162,-134)">
        <g transform="matrix(0.25,0,0,0.25,162,134)">
            <rect id="filter-circle-check" x="0" y="0" width="64" height="64" style="fill:none;"/>
            <g id="filter-circle-check1" serif:id="filter-circle-check">
                <g transform="matrix(4,0,0,4,-1008,-536)">
                    <path d="M252.113,135.414C252.297,135.025 252.686,134.778 253.116,134.778L265.116,134.778C265.547,134.778 265.936,135.025 266.119,135.414C266.302,135.803 266.247,136.261 265.975,136.594L263.016,140.211C260.788,140.669 259.116,142.639 259.116,145C259.116,145.761 259.291,146.483 259.602,147.125C259.558,147.103 259.513,147.075 259.472,147.044L257.694,145.711C257.469,145.544 257.338,145.281 257.338,145L257.338,142.803L252.255,136.592C251.986,136.261 251.927,135.8 252.113,135.414Z" style="fill-rule:nonzero;"/>
                </g>
                <g transform="matrix(4,0,0,4,-1224.68,-536)">
                    <path d="M322.17,145.016C322.136,146.149 321.741,147.094 320.985,147.852C320.229,148.611 319.287,148.998 318.157,149.016C317.028,148.998 316.09,148.611 315.343,147.852C314.596,147.094 314.205,146.149 314.17,145.016C314.205,143.883 314.596,142.937 315.343,142.179C316.09,141.421 317.028,141.033 318.157,141.016C319.287,141.033 320.229,141.421 320.985,142.179C321.741,142.937 322.136,143.883 322.17,145.016ZM321.266,143.082C321.258,143.071 321.249,143.061 321.239,143.052C320.885,142.697 320.309,142.697 319.955,143.052L318.698,144.307L318.182,145.504C318.182,145.504 317.782,144.477 317.782,144.477L317.324,144.019C316.97,143.665 316.394,143.665 316.04,144.019C315.685,144.374 315.685,144.949 316.04,145.304L317.513,146.777C317.688,146.952 317.917,147.04 318.146,147.042C318.153,147.042 318.16,147.042 318.166,147.042C318.395,147.039 318.623,146.951 318.797,146.777L321.238,144.336C321.582,143.992 321.592,143.438 321.266,143.082Z" style="fill-rule:nonzero;"/>
                </g>
            </g>
        </g>
    </g>
</svg>
