<?xml version="1.0" encoding="UTF-8" standalone="no"?>
<!DOCTYPE svg PUBLIC "-//W3C//DTD SVG 1.1//EN" "http://www.w3.org/Graphics/SVG/1.1/DTD/svg11.dtd">
<svg width="100%" height="100%" viewBox="0 0 16 16" version="1.1" xmlns="http://www.w3.org/2000/svg" xmlns:xlink="http://www.w3.org/1999/xlink" xml:space="preserve" xmlns:serif="http://www.serif.com/" style="fill-rule:evenodd;clip-rule:evenodd;stroke-linejoin:round;stroke-miterlimit:2;">
    <g transform="matrix(1,0,0,1,-140,-134)">
        <g transform="matrix(0.25,0,0,0.25,140,134)">
            <rect id="icinga" x="0" y="0" width="64" height="64" style="fill:none;"/>
            <clipPath id="_clip1">
                <rect id="icinga1" serif:id="icinga" x="0" y="0" width="64" height="64"/>
            </clipPath>
            <g clip-path="url(#_clip1)">
                <g transform="matrix(0.028493,0,0,0.028493,1.07196,0)">
                    <g transform="matrix(4,0,0,4,0,0)">
                        <path d="M305.637,44.644L330.458,49.188L248.679,280.771L223.859,276.227L305.637,44.644Z"/>
                    </g>
                    <g transform="matrix(4,0,0,4,0,0)">
                        <path d="M481.944,202.533L481.944,218.623L274.047,288.816L268.684,272.726L481.944,202.533Z"/>
                    </g>
                    <g transform="matrix(4,0,0,4,0,0)">
                        <path d="M350.332,421.156L350.332,445.168L259.901,322.169L282.83,309.243L350.332,421.156Z"/>
                    </g>
                    <g transform="matrix(4,0,0,4,0,0)">
                        <path d="M103.323,463.704L88.445,448.802L201.173,315.867L236.269,323.319L103.323,463.704Z"/>
                    </g>
                    <g transform="matrix(4,0,0,4,0,0)">
                        <path d="M95.884,175.482L74.608,146.769L244.031,270.497L228.507,291.754L95.884,175.482Z"/>
                    </g>
                    <g id="Orb-1" serif:id="Orb 1" transform="matrix(6.01058,0,0,6.08489,-684.883,1.9677)">
                        <path d="M318.047,0C345.44,0 367.68,21.968 367.68,49.026C367.68,76.084 345.44,98.052 318.047,98.052C290.655,98.052 268.415,76.084 268.415,49.026C268.415,21.968 290.655,0 318.047,0Z"/>
                    </g>
                    <g id="Orb-2" serif:id="Orb 2" transform="matrix(6.2603,0,0,6.3377,-1189.12,-493.419)">
                        <path d="M503.488,172.306C525.147,172.306 542.731,189.676 542.731,211.07C542.731,232.465 525.147,249.834 503.488,249.834C481.829,249.834 464.245,232.465 464.245,211.07C464.245,189.676 481.829,172.306 503.488,172.306Z"/>
                    </g>
                    <g id="Orb-3" serif:id="Orb 3" transform="matrix(9.01966,0,0,9.13117,-1337.13,-2229.08)">
                        <path d="M303.61,417.078C314.348,417.078 323.066,425.69 323.066,436.296C323.066,446.903 314.348,455.514 303.61,455.514C292.873,455.514 284.155,446.903 284.155,436.296C284.155,425.69 292.873,417.078 303.61,417.078Z"/>
                    </g>
                    <g id="Orb-4" serif:id="Orb 4" transform="matrix(4.93841,0,0,4.99946,-37.6219,-561.24)">
                        <path d="M63.961,435.181C99.263,435.181 127.923,463.492 127.923,498.362C127.923,533.232 99.263,561.542 63.961,561.542C28.66,561.542 0,533.232 0,498.362C0,463.492 28.66,435.181 63.961,435.181Z"/>
                    </g>
                    <g id="Orb-5" serif:id="Orb 5" transform="matrix(6.84016,0,0,6.92473,-189.854,-460.346)">
                        <path d="M66.846,126.988C83.837,126.988 97.632,140.614 97.632,157.398C97.632,174.181 83.837,187.807 66.846,187.807C49.855,187.807 36.061,174.181 36.061,157.398C36.061,140.614 49.855,126.988 66.846,126.988Z"/>
                    </g>
                    <g id="Orb-Center" serif:id="Orb Center" transform="matrix(4.34182,0,0,4.3955,19.5912,-110.981)">
                        <path d="M213.156,184.794C266.692,184.794 310.156,227.728 310.156,280.61C310.156,333.492 266.692,376.425 213.156,376.425C159.62,376.425 116.156,333.492 116.156,280.61C116.156,227.728 159.62,184.794 213.156,184.794Z"/>
                    </g>
                </g>
            </g>
        </g>
    </g>
</svg>
