<?xml version="1.0" encoding="UTF-8" standalone="no"?>
<!DOCTYPE svg PUBLIC "-//W3C//DTD SVG 1.1//EN" "http://www.w3.org/Graphics/SVG/1.1/DTD/svg11.dtd">
<svg width="100%" height="100%" viewBox="0 0 16 16" version="1.1" xmlns="http://www.w3.org/2000/svg" xmlns:xlink="http://www.w3.org/1999/xlink" xml:space="preserve" xmlns:serif="http://www.serif.com/" style="fill-rule:evenodd;clip-rule:evenodd;stroke-linejoin:round;stroke-miterlimit:2;">
    <g transform="matrix(1,0,0,1,-80,-134)">
        <g transform="matrix(0.25,0,0,0.25,80,134)">
            <rect id="th-list" x="0" y="0" width="64" height="64" style="fill:none;"/>
            <clipPath id="_clip1">
                <rect id="th-list1" serif:id="th-list" x="0" y="0" width="64" height="64"/>
            </clipPath>
            <g clip-path="url(#_clip1)">
                <g id="th-list2" serif:id="th-list">
                    <g transform="matrix(5.33333,0,0,5.33333,-563.593,-880)">
                        <rect x="105.674" y="165" width="12" height="12" style="fill:none;"/>
                    </g>
                    <g transform="matrix(59.7652,0,0,59.7652,4.03068,52.9178)">
                        <path d="M0,-0.062C0,-0.042 0.007,-0.025 0.021,-0.011C0.035,0.003 0.052,0.01 0.072,0.01L0.104,0.01C0.124,0.01 0.141,0.003 0.155,-0.011C0.169,-0.025 0.176,-0.042 0.176,-0.062C0.176,-0.082 0.169,-0.099 0.155,-0.113C0.141,-0.127 0.124,-0.134 0.104,-0.134L0.072,-0.134C0.052,-0.134 0.035,-0.127 0.021,-0.113C0.007,-0.099 0,-0.082 0,-0.062ZM0,-0.35C0,-0.33 0.007,-0.313 0.021,-0.299C0.035,-0.285 0.052,-0.278 0.072,-0.278L0.104,-0.278C0.124,-0.278 0.141,-0.285 0.155,-0.299C0.169,-0.313 0.176,-0.33 0.176,-0.35C0.176,-0.37 0.169,-0.387 0.155,-0.401C0.141,-0.415 0.124,-0.422 0.104,-0.422L0.072,-0.422C0.052,-0.422 0.035,-0.415 0.021,-0.401C0.007,-0.387 0,-0.37 0,-0.35ZM0,-0.638C0,-0.618 0.007,-0.601 0.021,-0.587C0.035,-0.573 0.052,-0.566 0.072,-0.566L0.104,-0.566C0.124,-0.566 0.141,-0.573 0.155,-0.587C0.169,-0.601 0.176,-0.618 0.176,-0.638C0.176,-0.658 0.169,-0.675 0.155,-0.689C0.141,-0.703 0.124,-0.71 0.104,-0.71L0.072,-0.71C0.052,-0.71 0.035,-0.703 0.021,-0.689C0.007,-0.675 0,-0.658 0,-0.638ZM0.234,-0.062C0.234,-0.042 0.241,-0.025 0.255,-0.011C0.269,0.003 0.286,0.01 0.306,0.01L0.865,0.01C0.885,0.01 0.902,0.003 0.916,-0.011C0.93,-0.025 0.937,-0.042 0.937,-0.062C0.937,-0.082 0.93,-0.099 0.916,-0.113C0.902,-0.127 0.885,-0.134 0.865,-0.134L0.306,-0.134C0.286,-0.134 0.269,-0.127 0.255,-0.113C0.241,-0.099 0.234,-0.082 0.234,-0.062ZM0.234,-0.35C0.234,-0.33 0.241,-0.313 0.255,-0.299C0.269,-0.285 0.286,-0.278 0.306,-0.278L0.865,-0.278C0.885,-0.278 0.902,-0.285 0.916,-0.299C0.93,-0.313 0.937,-0.33 0.937,-0.35C0.937,-0.37 0.93,-0.387 0.916,-0.401C0.902,-0.415 0.885,-0.422 0.865,-0.422L0.306,-0.422C0.286,-0.422 0.269,-0.415 0.255,-0.401C0.241,-0.387 0.234,-0.37 0.234,-0.35ZM0.234,-0.638C0.234,-0.618 0.241,-0.601 0.255,-0.587C0.269,-0.573 0.286,-0.566 0.306,-0.566L0.865,-0.566C0.885,-0.566 0.902,-0.573 0.916,-0.587C0.93,-0.601 0.937,-0.618 0.937,-0.638C0.937,-0.658 0.93,-0.675 0.916,-0.689C0.902,-0.703 0.885,-0.71 0.865,-0.71L0.306,-0.71C0.286,-0.71 0.269,-0.703 0.255,-0.689C0.241,-0.675 0.234,-0.658 0.234,-0.638Z" style="fill-rule:nonzero;"/>
                    </g>
                </g>
            </g>
        </g>
    </g>
</svg>
