<?xml version="1.0" encoding="UTF-8" standalone="no"?>
<!DOCTYPE svg PUBLIC "-//W3C//DTD SVG 1.1//EN" "http://www.w3.org/Graphics/SVG/1.1/DTD/svg11.dtd">
<svg width="100%" height="100%" viewBox="0 0 16 16" version="1.1" xmlns="http://www.w3.org/2000/svg" xmlns:xlink="http://www.w3.org/1999/xlink" xml:space="preserve" xmlns:serif="http://www.serif.com/" style="fill-rule:evenodd;clip-rule:evenodd;stroke-linejoin:round;stroke-miterlimit:2;">
    <g transform="matrix(1,0,0,1,-60,-134)">
        <g transform="matrix(0.25,0,0,0.25,60,134)">
            <rect id="grid" x="0" y="0" width="64" height="64" style="fill:none;"/>
            <g id="grid1" serif:id="grid">
                <g>
                    <g transform="matrix(5.33333,0,0,5.33333,-320,-880)">
                        <g>
                            <rect x="60" y="165" width="12" height="12" style="fill:none;"/>
                        </g>
                    </g>
                    <g transform="matrix(59.7577,0,0,59.9572,4.01886,52.985)">
                        <path d="M0,0.066L0,-0.22C0,-0.235 0.005,-0.247 0.015,-0.257C0.025,-0.267 0.037,-0.272 0.052,-0.273L0.338,-0.273C0.352,-0.273 0.364,-0.268 0.375,-0.257C0.386,-0.246 0.391,-0.234 0.39,-0.22L0.39,0.066C0.39,0.08 0.385,0.092 0.375,0.102C0.365,0.112 0.353,0.117 0.338,0.117L0.052,0.117C0.037,0.117 0.025,0.112 0.015,0.102C0.005,0.092 0,0.08 0,0.066ZM0,-0.48L0,-0.766C0,-0.78 0.005,-0.792 0.015,-0.802C0.025,-0.812 0.037,-0.817 0.052,-0.817L0.338,-0.817C0.352,-0.817 0.364,-0.812 0.375,-0.802C0.386,-0.792 0.391,-0.78 0.39,-0.766L0.39,-0.48C0.39,-0.465 0.385,-0.453 0.375,-0.443C0.365,-0.433 0.353,-0.428 0.338,-0.427L0.052,-0.427C0.038,-0.427 0.026,-0.432 0.015,-0.443C0.004,-0.454 -0.001,-0.466 0,-0.48ZM0.088,0.03L0.302,0.03L0.302,-0.184L0.088,-0.184L0.088,0.03ZM0.088,-0.516L0.302,-0.516L0.302,-0.729L0.088,-0.729L0.088,-0.516ZM0.547,0.066L0.547,-0.22C0.547,-0.235 0.552,-0.247 0.562,-0.257C0.572,-0.267 0.584,-0.272 0.599,-0.273L0.885,-0.273C0.899,-0.273 0.911,-0.268 0.922,-0.257C0.933,-0.246 0.938,-0.234 0.937,-0.22L0.937,0.066C0.937,0.08 0.932,0.092 0.922,0.102C0.912,0.112 0.9,0.117 0.885,0.117L0.599,0.117C0.585,0.117 0.573,0.112 0.562,0.102C0.551,0.092 0.546,0.08 0.547,0.066ZM0.547,-0.48L0.547,-0.766C0.547,-0.78 0.552,-0.792 0.562,-0.802C0.572,-0.812 0.584,-0.817 0.599,-0.817L0.885,-0.817C0.9,-0.817 0.912,-0.812 0.922,-0.802C0.932,-0.792 0.937,-0.78 0.937,-0.766L0.937,-0.48C0.937,-0.465 0.932,-0.453 0.922,-0.443C0.912,-0.433 0.9,-0.428 0.885,-0.427L0.599,-0.427C0.585,-0.427 0.573,-0.432 0.562,-0.443C0.551,-0.454 0.546,-0.466 0.547,-0.48ZM0.635,0.03L0.85,0.03L0.85,-0.184L0.635,-0.184L0.635,0.03ZM0.635,-0.516L0.85,-0.516L0.85,-0.729L0.635,-0.729L0.635,-0.516Z" style="fill-rule:nonzero;"/>
                    </g>
                </g>
            </g>
        </g>
    </g>
</svg>
