<svg viewBox="0 0 16 16" xmlns="http://www.w3.org/2000/svg"><g fill-rule="evenodd"><path d="m12.54.98c-.77 0-1.73.01-2.44.02 1.15 0 2.63.94 2.62 2.1v9.8c0 1.16-1.48 2.1-2.62 2.1.71 0 1.67.02 2.44.02 1.61 0 2.46-.95 2.46-2.12v-9.8c0-1.17-.86-2.12-2.46-2.12z"/><path d="m11 7.85h-2.39v-2.85h-1.22v2.85h-2.39v1.21h2.39v2.94h1.22v-2.94h2.39z"/><path d="m3.28 12.9v-9.8c0-1.16 1.48-2.1 2.62-2.1-.71 0-1.67-.02-2.44-.02-1.6 0-2.46.95-2.46 2.12v9.8c0 1.17.86 2.12 2.46 2.12.77 0 1.73-.01 2.44-.02-1.15 0-2.63-.94-2.62-2.1z"/></g></svg>